<svg width="10" height="10" viewBox="0 0 14 14" fill="none" xmlns="http://www.w3.org/2000/svg">
<path d="M14 0.606667V9.66C14 9.81556 13.9456 9.95556 13.8367 10.08C13.7278 10.2044 13.5878 10.2667 13.4167 10.2667C13.2456 10.2667 13.0978 10.2044 12.9733 10.08C12.8489 9.95556 12.7867 9.81556 12.7867 9.66V2.05333L1.02667 13.8133C0.902222 13.9378 0.754444 14 0.583333 14C0.412222 14 0.272222 13.9456 0.163333 13.8367C0.0544444 13.7278 0 13.5878 0 13.4167C0 13.2456 0.0622222 13.0978 0.186667 12.9733L11.9467 1.21333H4.34C4.18444 1.21333 4.04444 1.15111 3.92 1.02667C3.79556 0.902223 3.73333 0.754444 3.73333 0.583333C3.73333 0.412222 3.79556 0.272222 3.92 0.163333C4.04444 0.0544443 4.18444 0 4.34 0H13.3933C13.58 0 13.7278 0.0544443 13.8367 0.163333C13.9456 0.272222 14 0.42 14 0.606667Z" fill="#DAE63D"/>
</svg>
