<svg width="20" height="19" viewBox="0 0 20 19" fill="none" xmlns="http://www.w3.org/2000/svg">
<path d="M18.2281 8.24055H4.26556L10.3656 2.14055C10.8531 1.65305 10.8531 0.853055 10.3656 0.365555C10.2499 0.249675 10.1126 0.157741 9.96134 0.095014C9.81012 0.0322872 9.64802 0 9.48431 0C9.32059 0 9.15849 0.0322872 9.00727 0.095014C8.85606 0.157741 8.7187 0.249675 8.60306 0.365555L0.365555 8.60306C0.249676 8.7187 0.157741 8.85606 0.0950146 9.00727C0.0322877 9.15849 0 9.32059 0 9.4843C0 9.64802 0.0322877 9.81012 0.0950146 9.96134C0.157741 10.1126 0.249676 10.2499 0.365555 10.3656L8.60306 18.6031C8.71878 18.7188 8.85617 18.8106 9.00738 18.8732C9.15858 18.9358 9.32064 18.9681 9.48431 18.9681C9.64797 18.9681 9.81003 18.9358 9.96123 18.8732C10.1124 18.8106 10.2498 18.7188 10.3656 18.6031C10.4813 18.4873 10.5731 18.3499 10.6357 18.1987C10.6983 18.0475 10.7306 17.8855 10.7306 17.7218C10.7306 17.5581 10.6983 17.3961 10.6357 17.2449C10.5731 17.0937 10.4813 16.9563 10.3656 16.8406L4.26556 10.7406H18.2281C18.9156 10.7406 19.4781 10.1781 19.4781 9.49055C19.4781 8.80305 18.9156 8.24055 18.2281 8.24055Z" fill="black"/>
</svg>
