<svg width="17" height="17" viewBox="0 0 17 17" fill="none" xmlns="http://www.w3.org/2000/svg">
<path d="M8.21875 9.96875L2.09375 16.0938C1.86458 16.3229 1.57292 16.4375 1.21875 16.4375C0.864583 16.4375 0.572916 16.3229 0.34375 16.0938C0.114583 15.8646 0 15.5729 0 15.2188C0 14.8646 0.114583 14.5729 0.34375 14.3438L6.46875 8.21875L0.34375 2.09375C0.114583 1.86458 0 1.57292 0 1.21875C0 0.864583 0.114583 0.572916 0.34375 0.34375C0.572916 0.114583 0.864583 0 1.21875 0C1.57292 0 1.86458 0.114583 2.09375 0.34375L8.21875 6.46875L14.3438 0.34375C14.5729 0.114583 14.8646 0 15.2188 0C15.5729 0 15.8646 0.114583 16.0938 0.34375C16.3229 0.572916 16.4375 0.864583 16.4375 1.21875C16.4375 1.57292 16.3229 1.86458 16.0938 2.09375L9.96875 8.21875L16.0938 14.3438C16.3229 14.5729 16.4375 14.8646 16.4375 15.2188C16.4375 15.5729 16.3229 15.8646 16.0938 16.0938C15.8646 16.3229 15.5729 16.4375 15.2188 16.4375C14.8646 16.4375 14.5729 16.3229 14.3438 16.0938L8.21875 9.96875Z" fill="black"/>
</svg>
