<svg width="23" height="23" viewBox="0 0 23 23" fill="none" xmlns="http://www.w3.org/2000/svg">
<path d="M11.25 22.5C8.625 22.5 6.30208 21.7033 4.28125 20.11C2.26042 18.5167 0.947917 16.48 0.34375 14C0.260417 13.6875 0.322917 13.4012 0.53125 13.1412C0.739583 12.8812 1.02083 12.73 1.375 12.6875C1.70833 12.6458 2.01042 12.7083 2.28125 12.875C2.55208 13.0417 2.73958 13.2917 2.84375 13.625C3.34375 15.5 4.375 17.0312 5.9375 18.2188C7.5 19.4062 9.27083 20 11.25 20C13.6875 20 15.7554 19.1512 17.4537 17.4537C19.1521 15.7562 20.0008 13.6883 20 11.25C19.9992 8.81167 19.1504 6.74417 17.4537 5.0475C15.7571 3.35083 13.6892 2.50167 11.25 2.5C9.8125 2.5 8.46875 2.83333 7.21875 3.5C5.96875 4.16667 4.91667 5.08333 4.0625 6.25H6.25C6.60417 6.25 6.90125 6.37 7.14125 6.61C7.38125 6.85 7.50083 7.14667 7.5 7.5C7.49917 7.85333 7.37917 8.15042 7.14 8.39125C6.90083 8.63208 6.60417 8.75167 6.25 8.75H1.25C0.895833 8.75 0.599167 8.63 0.36 8.39C0.120833 8.15 0.000833333 7.85333 0 7.5V2.5C0 2.14583 0.12 1.84917 0.36 1.61C0.6 1.37083 0.896667 1.25083 1.25 1.25C1.60333 1.24917 1.90042 1.36917 2.14125 1.61C2.38208 1.85083 2.50167 2.1475 2.5 2.5V4.1875C3.5625 2.85417 4.85958 1.82292 6.39125 1.09375C7.92292 0.364583 9.5425 0 11.25 0C12.8125 0 14.2762 0.297083 15.6412 0.89125C17.0062 1.48542 18.1938 2.28708 19.2038 3.29625C20.2138 4.30542 21.0158 5.49292 21.61 6.85875C22.2042 8.22458 22.5008 9.68833 22.5 11.25C22.4992 12.8117 22.2025 14.2754 21.61 15.6412C21.0175 17.0071 20.2154 18.1946 19.2038 19.2037C18.1921 20.2129 17.0046 21.015 15.6412 21.61C14.2779 22.205 12.8142 22.5017 11.25 22.5ZM12.5 10.75L15.625 13.875C15.8542 14.1042 15.9688 14.3958 15.9688 14.75C15.9688 15.1042 15.8542 15.3958 15.625 15.625C15.3958 15.8542 15.1042 15.9687 14.75 15.9687C14.3958 15.9687 14.1042 15.8542 13.875 15.625L10.375 12.125C10.25 12 10.1562 11.8596 10.0938 11.7037C10.0312 11.5479 10 11.3862 10 11.2187V6.25C10 5.89583 10.12 5.59917 10.36 5.36C10.6 5.12083 10.8967 5.00083 11.25 5C11.6033 4.99917 11.9004 5.11917 12.1413 5.36C12.3821 5.60083 12.5017 5.8975 12.5 6.25V10.75Z" fill="#DAE63D"/>
</svg>
